<svg width="156" height="136" viewBox="0 0 156 136" fill="none" xmlns="http://www.w3.org/2000/svg">
<g clip-path="url(#clip0_352_3)">
<path fill-rule="evenodd" clip-rule="evenodd" d="M28.4724 0.664245L0.119191 60.2202C0.0112988 60.4418 -0.0228916 60.692 0.0216199 60.9343C0.0661315 61.1767 0.18701 61.3984 0.366578 61.5671L76.9418 134.945C77.1594 135.153 77.4491 135.27 77.7504 135.27C78.0518 135.27 78.3415 135.153 78.559 134.945L155.134 61.5717C155.314 61.403 155.435 61.1812 155.479 60.9389C155.524 60.6966 155.49 60.4463 155.382 60.2248L127.028 0.668826C126.937 0.468812 126.79 0.299375 126.605 0.180764C126.419 0.0621536 126.204 -0.000612715 125.984 -3.34126e-05H29.5261C29.3051 -0.00278289 29.088 0.0584715 28.9011 0.176341C28.7141 0.29421 28.5652 0.463658 28.4724 0.664245Z" fill="white"/>
<path fill-rule="evenodd" clip-rule="evenodd" d="M87.5885 66.3362C87.0388 66.3775 84.1984 66.547 77.8626 66.547C72.8232 66.547 69.2453 66.3958 67.99 66.3362C48.5152 65.4795 33.979 62.0894 33.979 58.0305C33.979 53.9715 48.5152 50.586 67.99 49.7155V62.9599C69.2636 63.0515 72.9103 63.2668 77.9496 63.2668C83.9969 63.2668 87.025 63.0148 87.5702 62.9644V49.7247C107.004 50.5905 121.508 53.9806 121.508 58.0305C121.508 62.0803 107.008 65.4704 87.5702 66.3316L87.5885 66.3362ZM87.5885 48.3549V36.5033H114.709V18.4303H40.8692V36.5033H67.9855V48.3503C45.9452 49.3628 29.3703 53.7287 29.3703 58.9604C29.3703 64.1922 45.9452 68.5535 67.9855 69.5706V107.549H87.584V69.5568C109.574 68.5444 126.121 64.1831 126.121 58.9559C126.121 53.7287 109.588 49.3673 87.584 48.3503L87.5885 48.3549Z" fill="#2D2C2C"/>
</g>
<defs>
<clipPath id="clip0_352_3">
<rect width="155.501" height="135.27" fill="white"/>
</clipPath>
</defs>
</svg>
