<svg width="470" height="470" viewBox="0 0 470 470" fill="none" xmlns="http://www.w3.org/2000/svg">
<path d="M235.529 208.522C217.257 208.522 204.086 220.437 204.086 238.308C204.086 256.179 218.899 268.098 237.185 268.098C248.222 268.098 257.953 263.729 263.978 256.367L251.318 249.052C247.976 252.709 242.895 254.843 237.185 254.843C229.257 254.843 222.523 250.705 220.022 244.084H266.395C266.776 242.177 266.97 240.238 266.975 238.294C266.975 220.437 253.818 208.522 235.529 208.522ZM219.89 232.518C221.957 225.916 227.62 221.759 235.532 221.759C243.456 221.759 249.118 225.916 251.171 232.518H219.89ZM216.149 190.317L170.291 269.754L124.418 190.313H141.613L170.276 239.961L198.939 190.313L216.149 190.317ZM61.1514 182.044L122.299 287.959H0L61.1514 182.044ZM333.502 238.312C333.502 248.241 339.99 254.861 350.051 254.861C356.87 254.861 361.984 251.766 364.614 246.717L377.326 254.05C372.06 262.818 362.197 268.098 350.051 268.098C331.765 268.098 318.609 256.183 318.609 238.312C318.609 220.437 331.78 208.522 350.051 208.522C362.197 208.522 372.045 213.802 377.326 222.571L364.614 229.903C361.984 224.855 356.87 221.759 350.051 221.759C340.005 221.759 333.502 228.38 333.502 238.312ZM470 190.313V266.439H455.107V190.317L470 190.313ZM413.732 208.518C395.461 208.518 382.29 220.434 382.29 238.305C382.29 256.176 397.117 268.095 415.388 268.095C426.426 268.095 436.156 263.725 442.182 256.363L429.521 249.049C426.18 252.706 421.098 254.839 415.385 254.839C407.461 254.839 400.726 250.701 398.226 244.081H444.598C444.978 242.174 445.171 240.234 445.174 238.29C445.174 220.434 432.018 208.518 413.732 208.518ZM398.09 232.514C400.161 225.912 405.805 221.756 413.732 221.756C421.66 221.756 427.318 225.912 429.374 232.514H398.09ZM313.641 210.171V226.21C311.923 225.689 310.14 225.416 308.346 225.398C298.733 225.398 291.797 232.018 291.797 241.947V266.439H276.903V210.178H291.797V225.405C291.797 216.997 301.578 210.178 313.644 210.178L313.641 210.171Z" fill="white"/>
</svg>
