<svg width="92" height="76" viewBox="0 0 92 76" fill="none" xmlns="http://www.w3.org/2000/svg">
<g clip-path="url(#clip0_352_6)">
<rect width="91.7736" height="76" fill="white"/>
<path d="M78.3302 0H91.5943L63.9906 27.3313C53.9941 37.2239 37.7867 37.2239 27.783 27.3313L0.168488 0H13.4434L34.4151 20.762C37.4707 23.7735 41.5885 25.4617 45.8787 25.4617C50.1689 25.4617 54.2868 23.7735 57.3424 20.762L78.3302 0Z" fill="#23292F"/>
<path d="M13.2731 76H0L27.783 48.5002C37.7795 38.6077 53.9869 38.6077 63.9906 48.5002L91.7736 76H78.5094L57.3585 55.0696C54.3029 52.0581 50.185 50.3699 45.8949 50.3699C41.6047 50.3699 37.4868 52.0581 34.4312 55.0696L13.2731 76Z" fill="#23292F"/>
</g>
<defs>
<clipPath id="clip0_352_6">
<rect width="91.7736" height="76" fill="white"/>
</clipPath>
</defs>
</svg>
